# xmcd CD database file
# Copyright (C) 1993-1998 Ti Kan
#
# Track frame offsets:
#  150
#  12992
#  25265
#  39087
#  51732
#  66332
#  77837
#  92102
#  104685
#  118627
#  128460
#  141180
#  151897
#  163087
#
# Disc length: 2332 seconds
#
# Revision: 1
# Processed by: cddbd v1.4b41PL1 Copyright (c) Steve Scherf et al.
# Submitted via: CDWizzard Release:4.35
#
DISCID=ba091a0e
DTITLE=Cellos - Cellos - Rang Tang Ding Dong
DYEAR=1900
DGENRE=
TTITLE0=Rang Tang Ding Dong (I's The Japanese Sandman)
TTITLE1=Under Your Spell
TTITLE2=Love That Girl (Unreleased)
TTITLE3=Juicy Crocodile
TTITLE4=You Took My Love
TTITLE5=What's The Matter For You
TTITLE6=Rang Tang Ding Dong (Unreleased Version)
TTITLE7=The Be Bop Mouse
TTITLE8=Doo Doo Wah (Unreleased)
TTITLE9=What's The Matter For You (Unreleased Version)
TTITLE10=Don't Wait (Featuring Dolly Lyon)
TTITLE11=I Beg For Your Love
TTITLE12=Buffalo Bill (Unreleased)
TTITLE13=Girlie That I Love
EXTD=
EXTT0=
EXTT1=
EXTT2=
EXTT3=
EXTT4=
EXTT5=
EXTT6=
EXTT7=
EXTT8=
EXTT9=
EXTT10=
EXTT11=
EXTT12=
EXTT13=
PLAYORDER=
